<?xml version="1.0" encoding="utf-8"?>
<!-- Generator: Adobe Illustrator 26.5.0, SVG Export Plug-In . SVG Version: 6.00 Build 0)  -->
<svg version="1.1" id="PRINT" xmlns="http://www.w3.org/2000/svg" xmlns:xlink="http://www.w3.org/1999/xlink" x="0px" y="0px"
	 viewBox="0 0 60.67 60.67" style="enable-background:new 0 0 60.67 60.67;" xml:space="preserve">
<style type="text/css">
	.st0{fill:#434F99;}
	.st1{fill:#53A5C5;}
</style>
<g>
	<path class="st0" d="M47.65,12.06c0.64,0.09,2.51,0.91,3.48,3.04c0.41,1.72,0.26,3.37-0.37,5.01c-0.82,2.12-2.06,3.97-3.41,5.78
		c-1.67,2.24-3.62,4.24-5.43,6.35c-0.35,0.41-0.7,0.82-1.04,1.23c-0.16,0.2-0.26,0.28-0.48,0.03c-0.99-1.14-1.99-2.26-3.01-3.38
		c-0.22-0.24-0.23-0.38-0.01-0.63c1.77-2.05,3.53-4.11,5.27-6.17c1-1.19,1.92-2.43,2.5-3.89c0.27-0.68,0.38-1.39,0.46-2.11
		c0.03-0.26-0.07-0.29-0.3-0.25c-1.22,0.2-2.41,0.51-3.58,0.89c-2.95,0.96-5.72,2.32-8.39,3.89c-3.11,1.82-6.01,3.93-8.82,6.18
		c-1.68,1.35-3.31,2.76-4.83,4.3c-0.67,0.68-1.43,1-2.33,1.18c-1.65,0.33-3.3,0.72-4.95,1.08c-1.02,0.23-2.04,0.46-3.1,0.7
		c0.19-0.43,0.49-0.72,0.75-1.02c2.35-2.78,4.95-5.33,7.63-7.78c1.26-1.15,2.55-2.27,3.84-3.39c1.1-0.95,2.31-1.77,3.5-2.6
		c2.58-1.79,5.26-3.41,8.04-4.87c1.63-0.85,3.26-1.7,4.99-2.35C43.47,11.07,47.58,12.09,47.65,12.06z"/>
	<path class="st1" d="M21.42,48.71c0.5-0.42,0.99-0.85,1.49-1.26c0.9-0.74,1.81-1.47,2.72-2.2c0.62-0.51,1.25-1.02,1.86-1.54
		c0.18-0.16,0.38-0.17,0.6-0.17c2.62,0,5.23,0,7.85,0c0.38,0,0.75-0.01,1.13-0.03c0.84-0.04,1.78-0.94,1.9-1.78
		c0.02-0.18-0.03-0.33-0.14-0.45c-1.12-1.15-2.26-2.29-3.38-3.45c-1.6-1.65-3.22-3.28-4.21-5.41c-0.49-1.06-0.83-2.15-0.81-3.32
		c0.01-0.4,0.08-0.8,0.13-1.2c0.06-0.5,0.48-0.73,0.8-1.02c0.9-0.81,1.9-1.49,2.94-2.09c1.25-0.72,2.57-1.33,3.93-1.83
		c1.22-0.44,2.45-0.85,3.73-1.1c0.11-0.02,0.21-0.09,0.29,0.01c0.09,0.11,0,0.21-0.06,0.29c-0.24,0.34-0.44,0.7-0.73,1.01
		c-1.01,1.09-2.14,2.03-3.29,2.95c-0.71,0.57-1.42,1.17-1.9,1.99c-0.58,1-0.62,1.22,0.06,2.32c0.61,1,1.45,1.82,2.24,2.68
		c1.36,1.47,2.83,2.83,4.17,4.31c0.83,0.91,1.51,1.95,1.78,3.2c0.15,0.69,0.04,1.37-0.06,2.04c-0.18,1.15-0.6,2.22-1.31,3.15
		c-1.07,1.42-2.45,2.38-4.19,2.8c-0.6,0.14-1.21,0.21-1.83,0.21c-5.1-0.01-10.19,0-15.29,0c-0.12,0-0.24,0-0.35,0
		C21.45,48.78,21.44,48.75,21.42,48.71z"/>
	<path class="st0" d="M27.3,27.92c0,2.78,0,5.47,0,8.17c0,1.85-0.01,3.69,0.01,5.54c0,0.35-0.08,0.59-0.36,0.83
		c-1.85,1.58-3.68,3.18-5.52,4.77c-0.12-0.1-0.07-0.22-0.07-0.31c0-4.37,0-8.73-0.01-13.1c0-0.34,0.1-0.56,0.35-0.79
		c1.79-1.62,3.55-3.26,5.33-4.89C27.09,28.07,27.16,28.02,27.3,27.92z"/>
</g>
<g id="Layer_2">
</g>
</svg>
