<?xml version="1.0" encoding="utf-8"?>
<!-- Generator: Adobe Illustrator 26.5.0, SVG Export Plug-In . SVG Version: 6.00 Build 0)  -->
<svg version="1.1" id="PRINT" xmlns="http://www.w3.org/2000/svg" xmlns:xlink="http://www.w3.org/1999/xlink" x="0px" y="0px"
	 viewBox="0 0 32 32" style="enable-background:new 0 0 32 32;" xml:space="preserve">
<style type="text/css">
	.st0{fill:#434F99;}
	.st1{fill:#53A5C5;}
</style>
<g>
	<path class="st0" d="M28.73,2.57c0.47,0.07,1.84,0.67,2.56,2.23c0.3,1.26,0.19,2.48-0.27,3.68c-0.6,1.56-1.51,2.92-2.51,4.25
		c-1.23,1.65-2.66,3.12-3.99,4.67c-0.26,0.3-0.51,0.6-0.76,0.9c-0.12,0.15-0.19,0.21-0.35,0.02c-0.73-0.84-1.46-1.66-2.21-2.48
		c-0.16-0.18-0.17-0.28-0.01-0.46c1.3-1.51,2.59-3.02,3.87-4.53c0.73-0.87,1.41-1.79,1.84-2.86c0.2-0.5,0.28-1.02,0.34-1.55
		c0.02-0.19-0.05-0.21-0.22-0.18c-0.9,0.15-1.77,0.37-2.63,0.65c-2.17,0.71-4.2,1.71-6.17,2.86c-2.29,1.34-4.42,2.89-6.48,4.54
		c-1.23,0.99-2.43,2.03-3.55,3.16c-0.49,0.5-1.05,0.73-1.71,0.87c-1.21,0.24-2.43,0.53-3.64,0.79c-0.75,0.17-1.5,0.34-2.28,0.51
		c0.14-0.32,0.36-0.53,0.55-0.75c1.73-2.04,3.64-3.92,5.61-5.72c0.93-0.85,1.87-1.67,2.82-2.49c0.81-0.7,1.7-1.3,2.57-1.91
		c1.9-1.32,3.87-2.51,5.91-3.58c1.2-0.62,2.4-1.25,3.67-1.73C25.65,1.84,28.67,2.59,28.73,2.57z"/>
	<path class="st1" d="M9.45,29.5c0.37-0.31,0.73-0.62,1.1-0.93c0.66-0.54,1.33-1.08,2-1.62c0.46-0.37,0.92-0.75,1.37-1.13
		c0.13-0.12,0.28-0.12,0.44-0.12c1.93,0,3.84,0,5.77,0c0.28,0,0.55-0.01,0.83-0.02c0.62-0.03,1.31-0.69,1.4-1.31
		c0.01-0.13-0.02-0.24-0.1-0.33c-0.82-0.85-1.66-1.68-2.48-2.54c-1.18-1.21-2.37-2.41-3.09-3.98c-0.36-0.78-0.61-1.58-0.6-2.44
		c0.01-0.29,0.06-0.59,0.1-0.88c0.04-0.37,0.35-0.54,0.59-0.75c0.66-0.6,1.4-1.1,2.16-1.54c0.92-0.53,1.89-0.98,2.89-1.34
		c0.9-0.32,1.8-0.62,2.74-0.81c0.08-0.01,0.15-0.07,0.21,0.01c0.07,0.08,0,0.15-0.04,0.21c-0.18,0.25-0.32,0.51-0.54,0.74
		c-0.74,0.8-1.57,1.49-2.42,2.17c-0.52,0.42-1.04,0.86-1.4,1.46c-0.43,0.73-0.46,0.9,0.04,1.71c0.45,0.73,1.07,1.34,1.65,1.97
		c1,1.08,2.08,2.08,3.06,3.17c0.61,0.67,1.11,1.43,1.31,2.35c0.11,0.51,0.03,1.01-0.04,1.5c-0.13,0.85-0.44,1.63-0.96,2.32
		c-0.79,1.04-1.8,1.75-3.08,2.06c-0.44,0.1-0.89,0.15-1.34,0.15c-3.75-0.01-7.49,0-11.24,0c-0.09,0-0.18,0-0.26,0
		C9.47,29.56,9.46,29.53,9.45,29.5z"/>
	<path class="st0" d="M13.77,14.23c0,2.04,0,4.02,0,6c0,1.36-0.01,2.71,0.01,4.07c0,0.26-0.06,0.43-0.26,0.61
		c-1.36,1.16-2.7,2.34-4.06,3.51c-0.09-0.07-0.05-0.16-0.05-0.23c0-3.21,0-6.42-0.01-9.63c0-0.25,0.07-0.41,0.26-0.58
		c1.32-1.19,2.61-2.4,3.92-3.59C13.62,14.34,13.67,14.3,13.77,14.23z"/>
</g>
<g id="Layer_2_00000135676526343787101730000008912424932513258137_">
</g>
</svg>
